HIERARCHY
ROOT hips
{
  OFFSET 0 10.6860622 2.3727825e-15
  CHANNELS 6 Xposition Yposition Zposition Yrotation Xrotation Zrotation
  JOINT leftUpperLeg
  {
    OFFSET 0.6642549969 -0.9402397400000004 0
    CHANNELS 3 Yrotation Xrotation Zrotation
    JOINT leftLowerLeg
    {
      OFFSET 0 -3.997221335632195 0
      CHANNELS 3 Yrotation Xrotation Zrotation
      JOINT leftFoot
      {
        OFFSET -0.13777839790000004 -4.6145792000000005 -0.22186036399999998
        CHANNELS 3 Yrotation Xrotation Zrotation
        JOINT leftToes
        {
          OFFSET -0.03777410834999995 -0.9130806927000008 0.85230013
          CHANNELS 3 Yrotation Xrotation Zrotation
          End Site
          {
            OFFSET -0.03777410834999995 -0.9130806927000008 0.85230013
          }
        }
      }
    }
  }
  JOINT rightUpperLeg
  {
    OFFSET -0.6642778626 -0.9402397400000004 0
    CHANNELS 3 Yrotation Xrotation Zrotation
    JOINT rightLowerLeg
    {
      OFFSET 0 -3.997221452859387 0
      CHANNELS 3 Yrotation Xrotation Zrotation
      JOINT rightFoot
      {
        OFFSET 0.1377926176 -4.6145792000000005 -0.22185782299999995
        CHANNELS 3 Yrotation Xrotation Zrotation
        JOINT rightToes
        {
          OFFSET 0.037780746850000047 -0.9130806927000008 0.85230167
          CHANNELS 3 Yrotation Xrotation Zrotation
          End Site
          {
            OFFSET 0.037780746850000047 -0.9130806927000008 0.85230167
          }
        }
      }
    }
  }
  JOINT spine
  {
    OFFSET 0 0.13988381660000015 0
    CHANNELS 3 Yrotation Xrotation Zrotation
    JOINT chest
    {
      OFFSET 0 0.6191039003973773 0
      CHANNELS 3 Yrotation Xrotation Zrotation
      JOINT upperChest
      {
        OFFSET 0 0.9855186130586943 0
        CHANNELS 3 Yrotation Xrotation Zrotation
        JOINT leftShoulder
        {
          OFFSET 0.1807663869 1.5087829790000005 0
          CHANNELS 3 Yrotation Xrotation Zrotation
          JOINT leftUpperArm
          {
            OFFSET 0.5985063006419806 0 0
            CHANNELS 3 Yrotation Xrotation Zrotation
            JOINT leftLowerArm
            {
              OFFSET 2.2993332369501065 0 0
              CHANNELS 3 Yrotation Xrotation Zrotation
              JOINT leftHand
              {
                OFFSET 2.395047042602395 0 0
                CHANNELS 3 Yrotation Xrotation Zrotation
                JOINT leftIndexProximal
                {
                  OFFSET 0.5766295810000004 0.04556643899499946 0.17265095988184
                  CHANNELS 3 Yrotation Xrotation Zrotation
                  JOINT leftIndexIntermediate
                  {
                    OFFSET 0.2957229000000008 -0.019352197700001517 -0.007932640616999987
                    CHANNELS 3 Yrotation Xrotation Zrotation
                    JOINT leftIndexDistal
                    {
                      OFFSET 0.19008243099999922 -0.012484908149998475 -0.002786250786000012
                      CHANNELS 3 Yrotation Xrotation Zrotation
                      End Site
                      {
                        OFFSET 0.19008243099999922 -0.012484908149998475 -0.002786250786000012
                      }
                    }
                  }
                }
                JOINT leftMiddleProximal
                {
                  OFFSET 0.5834975091000001 0.0524350405149987 0.02204081888183999
                  CHANNELS 3 Yrotation Xrotation Zrotation
                  JOINT leftMiddleIntermediate
                  {
                    OFFSET 0.33880573540000003 -0.019871473270000717 -0.00000971183179999946
                    CHANNELS 3 Yrotation Xrotation Zrotation
                    JOINT leftMiddleDistal
                    {
                      OFFSET 0.20676022730000088 -0.012221336379999448 0.0001471936708000235
                      CHANNELS 3 Yrotation Xrotation Zrotation
                      End Site
                      {
                        OFFSET 0.20676022730000088 -0.012221336379999448 0.0001471936708000235
                      }
                    }
                  }
                }
                JOINT leftLittleProximal
                {
                  OFFSET 0.5344154683999995 -0.012880921405001189 -0.24414037221816004
                  CHANNELS 3 Yrotation Xrotation Zrotation
                  JOINT leftLittleIntermediate
                  {
                    OFFSET 0.21758961730000093 -0.011650919939999227 0.011893592810000034
                    CHANNELS 3 Yrotation Xrotation Zrotation
                    JOINT leftLittleDistal
                    {
                      OFFSET 0.1475273964999999 -0.008152365682999818 0.006001092492999946
                      CHANNELS 3 Yrotation Xrotation Zrotation
                      End Site
                      {
                        OFFSET 0.1475273964999999 -0.008152365682999818 0.006001092492999946
                      }
                    }
                  }
                }
                JOINT leftRingProximal
                {
                  OFFSET 0.5799399463000003 0.026911854694997794 -0.12150566991816003
                  CHANNELS 3 Yrotation Xrotation Zrotation
                  JOINT leftRingIntermediate
                  {
                    OFFSET 0.26167887460000006 -0.013480186499999602 0.010996293000000053
                    CHANNELS 3 Yrotation Xrotation Zrotation
                    JOINT leftRingDistal
                    {
                      OFFSET 0.17667108799999987 -0.008990287899999228 0.0055541023999999065
                      CHANNELS 3 Yrotation Xrotation Zrotation
                      End Site
                      {
                        OFFSET 0.17667108799999987 -0.008990287899999228 0.0055541023999999065
                      }
                    }
                  }
                }
                JOINT leftThumbProximal
                {
                  OFFSET 0.11018806699999972 -0.09448718900500053 0.17047963138184
                  CHANNELS 3 Yrotation Xrotation Zrotation
                  JOINT leftThumbIntermediate
                  {
                    OFFSET 0.31062601459999983 -0.08126270900000132 0.15443142000000007
                    CHANNELS 3 Yrotation Xrotation Zrotation
                    JOINT leftThumbDistal
                    {
                      OFFSET 0.21627175790000086 -0.08833193599999878 0.018771167799999988
                      CHANNELS 3 Yrotation Xrotation Zrotation
                      End Site
                      {
                        OFFSET 0.21627175790000086 -0.08833193599999878 0.018771167799999988
                      }
                    }
                  }
                }
              }
            }
          }
        }
        JOINT neck
        {
          OFFSET 0 1.5463305265074576 0
          CHANNELS 3 Yrotation Xrotation Zrotation
          JOINT head
          {
            OFFSET 0 0.8456443600000344 0
            CHANNELS 3 Yrotation Xrotation Zrotation
            JOINT leftEye
            {
              OFFSET 0.30408573140000006 0.5104519199999995 0.1276382305
              CHANNELS 3 Yrotation Xrotation Zrotation
              End Site
              {
                OFFSET 0.30408573140000006 0.5104519199999995 0.1276382305
              }
            }
            JOINT rightEye
            {
              OFFSET -0.30409491089999996 0.5104519199999995 0.1276379445
              CHANNELS 3 Yrotation Xrotation Zrotation
              End Site
              {
                OFFSET -0.30409491089999996 0.5104519199999995 0.1276379445
              }
            }
            JOINT jaw
            {
              OFFSET -3.155239131000001e-7 -0.11984121820000082 0.60178107
              CHANNELS 3 Yrotation Xrotation Zrotation
              End Site
              {
                OFFSET -3.155239131000001e-7 -0.11984121820000082 0.60178107
              }
            }
          }
        }
        JOINT rightShoulder
        {
          OFFSET -0.1807303465 1.5087829790000005 0
          CHANNELS 3 Yrotation Xrotation Zrotation
          JOINT rightUpperArm
          {
            OFFSET -0.5985063796536958 0 0
            CHANNELS 3 Yrotation Xrotation Zrotation
            JOINT rightLowerArm
            {
              OFFSET -2.2993322059002854 0 0
              CHANNELS 3 Yrotation Xrotation Zrotation
              JOINT rightHand
              {
                OFFSET -2.395045314457259 0 0
                CHANNELS 3 Yrotation Xrotation Zrotation
                JOINT rightIndexProximal
                {
                  OFFSET -0.5764487688300002 0.0441371204405987 0.17361932004999997
                  CHANNELS 3 Yrotation Xrotation Zrotation
                  JOINT rightIndexIntermediate
                  {
                    OFFSET -0.29573011380000047 -0.01934826376999843 -0.007698921482999974
                    CHANNELS 3 Yrotation Xrotation Zrotation
                    JOINT rightIndexDistal
                    {
                      OFFSET -0.19008373999999884 -0.012503266380000655 -0.0026365778999999897
                      CHANNELS 3 Yrotation Xrotation Zrotation
                      End Site
                      {
                        OFFSET -0.19008373999999884 -0.012503266380000655 -0.0026365778999999897
                      }
                    }
                  }
                }
                JOINT rightMiddleProximal
                {
                  OFFSET -0.5834852037300005 0.05211639405060153 0.02307162440000001
                  CHANNELS 3 Yrotation Xrotation Zrotation
                  JOINT rightMiddleIntermediate
                  {
                    OFFSET -0.33880114510000003 -0.019952774050000954 0.0002455003561999819
                    CHANNELS 3 Yrotation Xrotation Zrotation
                    JOINT rightMiddleDistal
                    {
                      OFFSET -0.20675694929999955 -0.012273788999999091 0.00030209124000002766
                      CHANNELS 3 Yrotation Xrotation Zrotation
                      End Site
                      {
                        OFFSET -0.20675694929999955 -0.012273788999999091 0.00030209124000002766
                      }
                    }
                  }
                }
                JOINT rightLittleProximal
                {
                  OFFSET -0.5346811737299992 -0.011214256288399227 -0.24363941305000003
                  CHANNELS 3 Yrotation Xrotation Zrotation
                  JOINT rightLittleIntermediate
                  {
                    OFFSET -0.21757715980000092 -0.011771559690000988 0.01201554387
                    CHANNELS 3 Yrotation Xrotation Zrotation
                    JOINT rightLittleDistal
                    {
                      OFFSET -0.1475201849000004 -0.00822055339600003 0.006082065407000015
                      CHANNELS 3 Yrotation Xrotation Zrotation
                      End Site
                      {
                        OFFSET -0.1475201849000004 -0.00822055339600003 0.006082065407000015
                      }
                    }
                  }
                }
                JOINT rightRingProximal
                {
                  OFFSET -0.5800810755299999 0.027657985680600072 -0.12066365025000003
                  CHANNELS 3 Yrotation Xrotation Zrotation
                  JOINT rightRingIntermediate
                  {
                    OFFSET -0.26166445029999974 -0.013623118409999302 0.011164098990000045
                    CHANNELS 3 Yrotation Xrotation Zrotation
                    JOINT rightRingDistal
                    {
                      OFFSET -0.17666387530000027 -0.009072900100000503 0.005668185599999959
                      CHANNELS 3 Yrotation Xrotation Zrotation
                      End Site
                      {
                        OFFSET -0.17666387530000027 -0.009072900100000503 0.005668185599999959
                      }
                    }
                  }
                }
                JOINT rightThumbProximal
                {
                  OFFSET -0.10997596379000074 -0.09577489355940072 0.16989765924999997
                  CHANNELS 3 Yrotation Xrotation Zrotation
                  JOINT rightThumbIntermediate
                  {
                    OFFSET -0.31036620999999986 -0.08229339117999834 0.15440884469999996
                    CHANNELS 3 Yrotation Xrotation Zrotation
                    JOINT rightThumbDistal
                    {
                      OFFSET -0.21631306399999906 -0.08825326400000111 0.018656797720000014
                      CHANNELS 3 Yrotation Xrotation Zrotation
                      End Site
                      {
                        OFFSET -0.21631306399999906 -0.08825326400000111 0.018656797720000014
                      }
                    }
                  }
                }
              }
            }
          }
        }
      }
    }
  }
}
MOTION
Frames: 9
Frame Time: 0.03333333333333333
0 11.682712981546562 0 0 0 0 0 0 -5.826343164929014 -0.3712483961610101 -3.6333298826370974 5.838118207697276 0 0 0 0 0 0 0 0 5.826343164929014 0.3712483961610101 -3.6333298826370974 -5.838118207697276 0 0 0 0 0 0 0 -4.610651315171937 0 0 3.0831277533083026 0 0 0 0 0 1.5275236235667615 0 0 0 0 0 0 0 0 0 0 0 0 0 0 0 0 0 0 0 0 0 0 0 0 0 0 0 0 0 0 0 0 0 0 0 0 0 0 0 0 0 0 0 0 0 0 0 0 0 0 0 0 0 0 0 0 1.5275236235667615 0 0 0 0 0 0 0 0 0 0 0 0 0 0 1.5275236235667615 0 0 0 0 0 0 0 0 0 0 0 0 0 0 0 0 0 0 0 0 0 0 0 0 0 0 0 0 0 0 0 0 0 0 0 0 0 0 0 0 0 0 0 0 0 0 0 0 0 0 0 0 0 0 0
-0.2131004216379501 7.754347454452666 2.303257034142385 59.99999955470795 0 0 0.24292314807743565 -2.911342464091769 -5.534322100069226 0.09150601249105342 2.251657269577103 5.832529772209771 0.4647358462985299 -3.352502933483605 1.821941462468381 0 0 0 -0.28553262250701505 -2.362026537809024 -2.388728422701296 -0.030019528506347017 -0.5453090847326167 -4.9490287608053585 -0.2032042567265625 -1.8301863465949104 0.05397755027243171 0 0 0 -0.5234221807499283 -6.119476682729183 0.239682883490748 -1.1150358173251795 1.7318793145021323 -2.654693503403909 0 0 0 -2.709964435562941 -0.08779292472797325 -18.904086075631174 0.5681464019584707 -0.3214591503165602 0.058440309361979206 -35.333350815885936 -18.52241615073462 -13.710762123783642 2.025562068194862 4.332134381990438 -8.98653996704345 0 0 0 0 0 0 0 0 0 0 0 0 0 0 0 0 0 0 0 0 0 0 0 0 0 0 0 0 0 0 0 0 0 0 0 0 0 0 0 0 0 0 0 0 0 0.000011937294964408976 1.6994679163842823 0.007576113030413258 0.0029440597167925053 0.029722606707992955 0.11482141563140039 0 0 0 0 0 0 0 0 0 9.00168915673437 -5.836612044059297 16.260146623798093 9.563352531308476 -1.1152869619574015 1.2668166927649829 32.901297088579746 -19.132416272234476 12.378626798902664 6.932441424357497 6.259693565962572 0.8497688523411177 0 0 0 0 0 0 0 0 0 0 0 0 0 0 0 0 0 0 0 0 0 0 0 0 0 0 0 0 0 0 0 0 0 0 0 0 0 0 0 0 0 0 0 0 0
-0.4262008432759002 3.82598192735877 4.60651406828477 120.00000044529207 0 0 0.47187931511074044 -5.823862002945796 -5.253569932295163 0.5580263952394675 8.136496924708577 5.8748183116374255 0.8243814361817458 -6.718018800128363 3.6259035217193083 0 0 0 -0.23029231646798004 -4.7405999734884645 -10.613109327827697 -0.383677742930382 2.548496122270327 -4.080758197061596 -0.40844731070207135 -3.6601688141590643 0.11454055601889979 0 0 0 -0.8878106420958184 -7.089761532833834 -0.9480633104085846 -2.165819936771525 0.3307402737515427 -5.281458230989353 0 0 0 -4.752449566849662 -2.492473857836553 -37.728112720632595 1.1359914517266185 -0.6434818603411931 0.11369278128530287 -72.92750837531597 -41.42317777446172 -13.68197509047148 3.3603684621272514 8.926204322477593 -17.895475328276863 0 0 0 0 0 0 0 0 0 0 0 0 0 0 0 0 0 0 0 0 0 0 0 0 0 0 0 0 0 0 0 0 0 0 0 0 0 0 0 0 0 0 0 0 0 0.000046623677227196086 1.8714122511135451 0.015152971211670587 0.005947679288001336 0.05943925833609657 0.22964440112981774 0 0 0 0 0 0 0 0 0 15.769387411034215 -15.370656616208398 31.60903294614343 19.10614384599357 -2.4253359506089516 2.3314244465125107 68.21402364902964 -41.78748006891672 11.764842849564479 14.082713535100927 12.368413168483972 2.480361305681871 0 0 0 0 0 0 0 0 0 0 0 0 0 0 0 0 0 0 0 0 0 0 0 0 0 0 0 0 0 0 0 0 0 0 0 0 0 0 0 0 0 0 0 0 0
-0.6393012649138503 -0.10238359973512771 6.909771102427155 180 0 0 0.6878924455943111 -8.737446524809213 -4.982759664677138 1.0385010807026307 14.020788312833693 5.96726524017214 1.0794390762337294 -10.093128478280892 5.424144930969979 0 0 0 0.16739165078708676 -7.086703422193253 -18.875047685753106 -0.6915798408275572 5.647260530943241 -3.2283141521003866 -0.6161584174907324 -5.489921357111169 0.18184252641221824 0 0 0 -1.2172313766524876 -6.561723623950503 -2.3917139276729706 -3.151465616467415 -1.1168526529674894 -7.882545766013359 0 0 0 -5.913043207652177 -5.426967620900326 -56.51796658734715 1.7035705687978326 -0.9660362223088016 0.16575503766261213 -130.56720874717803 -57.192514588712065 12.339119027570849 3.9693697616015187 13.670258899616027 -26.83921864837739 0 0 0 0 0 0 0 0 0 0 0 0 0 0 0 0 0 0 0 0 0 0 0 0 0 0 0 0 0 0 0 0 0 0 0 0 0 0 0 0 0 0 0 0 0 0.00010406616137663721 2.043356574678889 0.022730710788008417 0.009010848323865157 0.0891498261335774 0.34446903223476205 0 0 0 0 0 0 0 0 0 19.96318245774766 -26.31326489065549 46.70946555062569 28.63587814284313 -3.8935652654911035 3.1650545587573746 122.95802268048936 -57.763113643077624 -13.679548804751144 21.619516971486124 18.221778110963104 4.944006880840215 0 0 0 0 0 0 0 0 0 0 0 0 0 0 0 0 0 0 0 0 0 0 0 0 0 0 0 0 0 0 0 0 0 0 0 0 0 0 0 0 0 0 0 0 0
-0.617548518644945 -0.10238359973512771 6.908639560611328 180 0 0 0.6705720267779407 -8.700045936937435 -4.853182570299531 1.0385010807026307 14.020788312833693 5.96726524017214 1.3458072149544185 -10.029573743268799 5.27974750589986 0 0 0 0.17674014224238202 -7.183872606265711 -18.73704823744157 -0.6972702597213032 5.861534528853368 -3.2781788149700444 -0.6317669177479799 -5.613016104143731 0.09198599295464542 0 0 0 -1.2300515238544185 -6.541490672490652 -2.434248259895303 -3.159775706744551 -1.100340888299984 -7.781147399133801 0 0 0 -5.7919267646020876 -5.333443455170599 -56.61738213522749 1.7035705687978326 -0.9660362223088016 0.16575503766261213 -129.9456545877786 -57.20474448941254 11.697115138896224 3.788845588925213 13.617836570715161 -26.918932263839206 0 0 0 0 0 0 0 0 0 0 0 0 0 0 0 0 0 0 0 0 0 0 0 0 0 0 0 0 0 0 0 0 0 0 0 0 0 0 0 0 0 0 0 0 0 -0.001331571931622847 2.2156785908773857 0.031065270072252908 0.009220414065264415 0.11890762234880874 0.45985795125766904 0 0 0 0 0 0 0 0 0 19.869935958136306 -26.234690341130225 46.82520063105225 28.273116343234904 -3.865151033139933 3.0518373861165915 122.55915958290142 -57.717392081928764 -13.168142541800295 21.699397238300254 18.235441136018167 5.275192315280415 0 0 0 0 0 0 0 0 0 0 0 0 0 0 0 0 0 0 0 0 0 0 0 0 0 0 0 0 0 0 0 0 0 0 0 0 0 0 0 0 0 0 0 0 0
-0.5957957723760398 -0.10238359973512771 6.907508018795502 180 0 0 0.6533389434477593 -8.662606766885528 -4.723629850881012 1.0385010807026307 14.020788312833693 5.96726524017214 1.6119595091073218 -9.965358795915488 5.135679544841268 0 0 0 0.18585469243330038 -7.281063426387244 -18.59903596104135 -0.7031503577487044 6.075803677933746 -3.328084269976088 -0.6471847613185363 -5.73613470251283 0.0021439655684262404 0 0 0 -1.2428862115311965 -6.521267563301326 -2.4767854769113495 -3.1680566657456506 -1.083814378055418 -7.679753128822144 0 0 0 -5.67099182946288 -5.239710626334809 -56.71658542906116 1.7035705687978326 -0.9660362223088016 0.16575503766261213 -129.3237134827261 -57.21320061933582 11.054724801783234 3.6084365550899906 13.565171158965422 -26.998453943544675 0 0 0 0 0 0 0 0 0 0 0 0 0 0 0 0 0 0 0 0 0 0 0 0 0 0 0 0 0 0 0 0 0 0 0 0 0 0 0 0 0 0 0 0 0 -0.0027422951844407644 2.3880007940820605 0.039396513495267065 0.009489909660872133 0.1486649303690053 0.5752470893845604 0 0 0 0 0 0 0 0 0 19.77692831470667 -26.155950088556235 46.940709376501786 27.910312613950158 -3.83745268329572 2.938446150979016 122.16158715531903 -57.66977410483592 -12.65800435125415 21.779365031670125 18.248666528444826 5.606422550989317 0 0 0 0 0 0 0 0 0 0 0 0 0 0 0 0 0 0 0 0 0 0 0 0 0 0 0 0 0 0 0 0 0 0 0 0 0 0 0 0 0 0 0 0 0
-0.5740430261071344 -0.10238359973512771 6.906376476979675 180 0 0 0.6361932720773392 -8.625129873756295 -4.594101283268261 1.0385010807026307 14.020788312833693 5.96726524017214 1.8778945763303492 -9.900486546809475 4.991944474363354 0 0 0 0.194735128149065 -7.378275315384396 -18.461007198617143 -0.7092206345534173 6.29006753514955 -3.3780320161093513 -0.6624118439190376 -5.859277307051354 -0.08768435473336177 0 0 0 -1.2557355186630712 -6.50105386302058 -2.5193253370171007 -3.1763083080076946 -1.06727322784227 -7.578360460503579 0 0 0 -5.550238120470144 -5.145769406940743 -56.81556995090045 1.7035705687978326 -0.9660362223088016 0.16575503766261213 -128.70152537617136 -57.21788038450176 10.412088085674394 3.428142631986308 13.512261903811044 -27.07779026614507 0 0 0 0 0 0 0 0 0 0 0 0 0 0 0 0 0 0 0 0 0 0 0 0 0 0 0 0 0 0 0 0 0 0 0 0 0 0 0 0 0 0 0 0 0 -0.004128119441799789 2.5603230341611294 0.04772459241303911 0.009819334454019755 0.1784216381565811 0.6906365550100229 0 0 0 0 0 0 0 0 0 19.684162247850395 -26.077040517982873 47.056003614138156 27.54746495621263 -3.810471423087268 2.8248849678947474 121.7653547705809 -57.620267141343994 -12.149175553134443 21.85941826567786 18.261452390946726 5.9376969056169635 0 0 0 0 0 0 0 0 0 0 0 0 0 0 0 0 0 0 0 0 0 0 0 0 0 0 0 0 0 0 0 0 0 0 0 0 0 0 0 0 0 0 0 0 0
-0.5522903693023195 -0.10238359973512771 6.905244935163849 180 0 0 0.6191277544450055 -8.587597983687534 -4.4645398754728935 1.0385010807026307 14.020788312833693 5.96726524017214 2.1441624430813606 -9.83481866242133 4.848246565499766 0 0 0 0.2033872218961527 -7.475578315484125 -18.322864054852115 -0.7154892349962361 6.5045843059115045 -3.428084198116194 -0.6774572408064395 -5.982514895307559 -0.1775529766353912 0 0 0 -1.2686002654620427 -6.4808482790991855 -2.5618717471859402 -3.1845325541892744 -1.0507130601941594 -7.476944506732397 0 0 0 -5.42957303690168 -5.051547641005367 -56.914428936542635 1.7035705687978326 -0.9660362223088016 0.16575503766261213 -128.0771959123299 -57.21877604064444 9.767245722988136 3.2478081248903274 13.459065028579573 -27.157004134192594 0 0 0 0 0 0 0 0 0 0 0 0 0 0 0 0 0 0 0 0 0 0 0 0 0 0 0 0 0 0 0 0 0 0 0 0 0 0 0 0 0 0 0 0 0 -0.0054898910389117855 2.732773158874394 0.05605556149561275 0.01020901828654917 0.20818793238495453 0.8060670161338759 0 0 0 0 0 0 0 0 0 19.59158963503748 -25.99792762633664 47.171129531566315 27.183172439674557 -3.784107924674237 2.7107171926727163 121.36974127846815 -57.56878334681758 -11.640713243847122 21.939754229780768 18.273829197075557 6.269850441793875 0 0 0 0 0 0 0 0 0 0 0 0 0 0 0 0 0 0 0 0 0 0 0 0 0 0 0 0 0 0 0 0 0 0 0 0 0 0 0 0 0 0 0 0 0
-0.5305377124975046 -0.10238359973512771 6.904113393348022 180 0 0 0.6021498167446563 -8.550027500937924 -4.335002749280693 1.0385010807026307 14.020788312833693 5.96726524017214 2.410209432425436 -9.768495012013943 4.704888249388561 0 0 0 0.2118045772660792 -7.572902142499087 -18.184703556919114 -0.7219491890783617 6.719095545838013 -3.4781816689878506 -0.6923117215822658 -6.105776404379758 -0.26740952552601577 0 0 0 -1.2814797173569117 -6.460652526508128 -2.6044207319762642 -3.1927272750493403 -1.0341383570743439 -7.375529883447029 0 0 0 -5.309088411378227 -4.957118897434028 -57.01307602557077 1.7035705687978326 -0.9660362223088016 0.16575503766261213 -127.45290622153803 -57.21586208415563 9.122441412629481 3.0675894914011814 13.405625441563906 -27.236026742643908 0 0 0 0 0 0 0 0 0 0 0 0 0 0 0 0 0 0 0 0 0 0 0 0 0 0 0 0 0 0 0 0 0 0 0 0 0 0 0 0 0 0 0 0 0 -0.006826757383287095 2.90522348472751 0.06438365951641616 0.010658672232395305 0.23795337566146824 0.9214977951010785 0 0 0 0 0 0 0 0 0 19.499258273132167 -25.91864774562133 47.28603219834317 26.818838643016765 -3.7584695054070942 2.5963872347133887 120.97556241097007 -57.51542007867984 -11.133655134301476 22.020168501784536 18.285762691089303 6.602045758116413 0 0 0 0 0 0 0 0 0 0 0 0 0 0 0 0 0 0 0 0 0 0 0 0 0 0 0 0 0 0 0 0 0 0 0 0 0 0 0 0 0 0 0 0 0
